<svg width="444" height="1487" viewBox="0 0 444 1487" fill="none" xmlns="http://www.w3.org/2000/svg">
<path d="M178.8 1440.6C178.6 1449.9 182.1 1459 188.5 1465.8L201.9 1480.1C210.1 1489.2 228.6 1489.4 237.5 1477.5L237.6 1477.4L250.4 1461C250.9 1460.5 252 1455.2 252 1454.5L244.6 1214.3L242.1 1073.2L245.3 876.3L252.2 747.8C252.3 745.6 250.1 744.2 248.1 745.1L216.4 760.2C215.6 760.6 214.6 760.6 213.8 760.1L179.6 740.4C177.7 739.3 175.3 740.7 175.4 742.9L183.7 1144.2L178.8 1440.6Z" fill="#FAD297"/>
<path d="M214.1 773.4C213.9 773.5 213.8 773.7 213.8 774L209.6 1117L217.7 1486.7C217.7 1487.3 229.3 1486 231.8 1484.3C236.4 1481.3 245.1 1470.4 248.6 1466.2C251.2 1463 252.6 1458.9 252.4 1454.7L252.3 1451.9L242.3 1078.6C242.3 1078.6 242.3 1078.6 242.3 1078.5L260.6 740.6C260.6 740 260 739.6 259.5 740L214.1 773.4Z" fill="#E19E4D"/>
<path d="M221.1 794.7C121.8 799.2 55.5998 705.3 46.3998 692.1C-20.2002 597.6 3.49983 487.4 8.39983 464.2C30.8998 359.5 86.7999 359 130 240.1C178 108.1 145.7 7.80015 175.6 0.800149C201.5 -5.19985 253.3 63.4001 270.6 137.5C292 229.3 251.4 290.8 297.2 354C308.8 370 327.9 388.8 339 384.4C358 376.8 338.4 307 354.2 300.8C368 295.4 406.2 339.8 426.4 392C472.2 510.3 410.7 629.5 403.6 642.7C382.5 681.8 324.6 790 221.1 794.7Z" fill="#DD3834"/>
<path d="M217.1 794.7C145.6 797.9 98 731.7 91.3 722.5C43.4 655.9 60.4001 578.3 63.9001 562C80.1001 488.3 120.3 487.9 151.4 404.2C185.9 311.2 162.7 240.6 184.2 235.7C202.8 231.5 240.1 279.8 252.6 332C268 396.7 238.8 440 271.7 484.5C280.1 495.8 293.8 509 301.8 505.9C315.5 500.6 301.4 451.4 312.7 447.1C322.7 443.3 350.1 474.6 364.7 511.3C397.7 594.6 353.4 678.5 348.3 687.9C333.3 715.2 291.7 791.4 217.1 794.7Z" fill="#F15A24"/>
<path d="M173.2 586.2C155.5 598.9 143.8 606.6 137.5 635.3C135.1 646.4 159.7 693.5 158.4 724.7C157.4 748.5 155.6 763.4 161.9 772.3C164.5 776 163.7 785.5 188.9 790.8C221.4 797.6 245.2 790.5 250.1 787.5C272.4 773.8 253.8 752.2 257.1 737.7C261.9 716.5 286.4 709.5 281 663.8C277.2 631.9 274.8 620.5 260.7 609.8C259.6 608.9 243.2 604.1 231.1 600.6C222.6 598.2 213.1 598.3 204.7 600.9C193.7 604.5 176.7 583.7 173.2 586.2Z" fill="#FFFF00"/>
</svg>
