<svg width="641" height="641" viewBox="0 0 641 641" fill="none" xmlns="http://www.w3.org/2000/svg">
<path d="M28.5777 13.4897C18.5372 12.7877 10.7036 19.983 4.08349 24.8969C-1.54357 28.9333 -1.65374 38.059 5.62833 42.4464C5.62833 42.5341 15.8892 48.7642 15.8892 48.852C72.9321 49.8172 200.148 44.3768 256.198 44.7278C304.193 44.9911 410.776 46.746 457.779 49.7294C464.399 50.2559 447.959 32.2677 450.166 30.776L462.413 13.9284C463.075 12.9632 462.192 11.8225 460.868 11.8225C355.168 14.5427 133.175 16.7364 28.5777 13.4897Z" fill="#FAD297"/>
<path d="M442.001 30.8638C332.328 27.8804 110.225 29.6353 0.111436 32.6187C-0.219567 32.6187 0.552558 38.3223 1.54557 39.5508C6.17961 43.3239 12.6895 49.7295 19.8612 49.6418C130.858 44.3769 351.968 45.3421 462.192 53.6781C464.399 53.4149 441.67 31.3903 442.001 30.8638Z" fill="#E19E4D"/>
<path d="M449.835 14.1917C474.218 -0.54988 499.595 1.9948 541.523 0.1521C567.782 -0.54988 583.008 0.415321 593.821 19.983C599.227 34.2859 585.767 46.9215 583.339 49.1152C557.742 67.5422 534.682 63.3303 491.651 60.6101C466.054 58.9429 456.786 57.8899 448.18 51.6599C437.698 35.9531 435.712 30.074 449.835 14.1917Z" fill="#F15A24"/>
<path d="M623.611 106.502C624.494 98.5169 615.446 92.2869 609.268 87.022C604.192 82.5469 592.718 82.4591 587.201 88.2505C587.091 88.2505 579.257 96.411 579.146 96.411C577.933 141.776 584.774 242.949 584.332 287.525C584.001 325.695 581.794 410.459 578.043 447.84C577.381 453.105 600 440.03 601.875 441.785L623.06 451.525C624.273 452.052 625.708 451.35 625.708 450.297C622.287 366.147 619.529 189.599 623.611 106.502Z" fill="#FAD297"/>
<path d="M601.765 435.292C605.406 348.071 603.31 171.435 599.558 83.8631C599.558 83.5999 592.387 84.2141 590.842 85.0038C586.098 88.6892 578.043 93.8663 578.153 99.5699C584.774 187.844 583.56 363.69 573.078 451.35C573.409 453.105 600.993 435.029 601.765 435.292Z" fill="#E19E4D"/>
<path d="M622.728 441.522C641.264 460.826 638.065 481.096 640.382 514.44C641.264 535.324 640.051 547.433 615.446 556.032C597.462 560.332 581.574 549.627 578.815 547.696C555.645 527.339 560.941 508.912 564.362 474.778C566.458 454.421 567.892 447.05 575.616 440.206C595.365 431.87 602.647 430.29 622.728 441.522Z" fill="#F15A24"/>
<path d="M594.483 627.284C604.523 627.986 612.357 620.79 618.977 615.876C624.604 611.84 624.715 602.714 617.433 598.327C617.433 598.239 607.171 592.009 607.171 591.921C550.129 590.956 422.913 596.484 366.863 596.045C318.868 595.782 212.285 594.027 165.282 591.044C158.662 590.517 175.102 608.506 172.895 609.997L160.648 626.845C159.986 627.81 160.869 628.951 162.193 628.951C268.003 626.231 489.996 624.037 594.483 627.284Z" fill="#FAD297"/>
<path d="M181.17 609.91C290.843 612.805 512.946 611.138 623.06 608.155C623.391 608.155 622.618 602.451 621.625 601.223C616.991 597.449 610.482 590.956 603.31 591.132C492.313 596.396 271.203 595.431 160.979 587.095C158.662 587.446 181.501 609.383 181.17 609.91Z" fill="#E19E4D"/>
<path d="M173.226 626.582C148.842 641.323 123.465 638.778 81.5381 640.621C55.2785 641.323 40.0524 640.358 29.2397 620.79C23.8333 606.487 37.2941 593.852 39.7214 591.658C65.319 573.231 88.4894 577.443 131.409 580.163C157.007 581.83 166.275 582.971 174.881 589.113C185.363 604.82 187.349 610.699 173.226 626.582Z" fill="#F15A24"/>
<path d="M16.9925 534.271C16.1098 542.256 25.1572 548.486 31.336 553.751C36.4113 558.226 47.8861 558.314 53.4028 552.523C53.5132 552.523 61.347 544.362 61.4573 544.362C62.671 498.997 55.72 397.824 56.2717 353.248C56.6027 315.078 58.9196 230.314 62.5607 192.933C63.2227 187.668 40.6043 200.743 38.7286 198.988L17.5442 189.248C16.3305 188.721 14.8962 189.423 14.8962 190.476C18.3166 274.626 21.0749 451.174 16.9925 534.271Z" fill="#FAD297"/>
<path d="M38.8388 205.569C35.1977 292.79 37.2941 469.425 41.0455 556.998C41.0455 557.261 48.2174 556.647 49.762 555.857C54.5064 552.171 62.5608 546.994 62.4505 541.291C55.8304 453.017 57.044 277.171 67.5257 189.511C67.0844 187.668 39.5008 205.832 38.8388 205.569Z" fill="#E19E4D"/>
<path d="M17.8752 199.251C-0.661003 179.947 2.53869 159.677 0.221672 126.333C-0.661004 105.449 0.552783 93.3398 25.1574 84.7406C43.1419 80.4409 59.03 91.1461 61.7883 93.0766C84.9586 113.434 79.6626 131.861 76.2423 165.995C74.1459 186.352 72.7113 193.723 64.9879 200.567C45.2381 208.903 37.8457 210.483 17.8752 199.251Z" fill="#F15A24"/>
<path d="M319.967 564.497C256.59 567.074 214.223 513.778 208.419 506.355C165.936 452.749 181.026 390.278 184.16 377.083C198.553 317.704 234.188 317.395 261.813 249.975C292.457 175.03 271.796 118.228 290.948 114.208C307.431 110.806 340.512 149.67 351.539 191.73C365.236 243.79 339.235 278.737 368.486 314.508C375.915 323.58 388.102 334.301 395.183 331.724C407.255 327.394 394.835 287.808 404.933 284.303C413.755 281.211 438.13 306.467 451.015 336.054C480.265 403.164 441.032 470.79 436.505 478.212C423.041 500.479 386.129 561.817 319.967 564.497Z" fill="#DD3834"/>
<path d="M317.413 564.497C271.796 566.353 241.268 528.725 237.089 523.571C206.446 485.841 217.357 441.822 219.562 432.544C229.893 390.69 255.545 390.484 275.394 343.064C297.448 290.283 282.591 250.284 296.403 247.501C308.243 245.13 332.154 272.551 340.048 302.138C349.914 338.837 331.226 363.372 352.235 388.629C357.575 395.02 366.396 402.546 371.504 400.793C380.209 397.804 371.271 369.867 378.468 367.392C384.852 365.228 402.379 382.959 411.665 403.783C432.675 450.997 404.469 498.624 401.219 503.881C391.701 519.448 365.12 562.641 317.413 564.497Z" fill="#F15A24"/>
<path d="M289.439 446.255C278.18 453.471 270.751 457.801 266.688 474.089C265.063 480.377 280.849 507.077 280.037 524.808C279.456 538.313 278.296 546.766 282.242 551.817C283.867 553.879 283.403 559.343 299.537 562.332C320.315 566.147 335.52 562.126 338.654 560.477C352.932 552.745 340.976 540.375 343.065 532.231C346.083 520.169 361.753 516.252 358.271 490.274C355.834 472.233 354.325 465.739 345.271 459.657C344.574 459.141 334.128 456.461 326.351 454.399C320.895 453.059 314.859 453.059 309.52 454.605C302.555 456.564 291.644 444.812 289.439 446.255Z" fill="#FFFF00"/>
</svg>
